<?xml version="1.0" standalone="no"?>
<!DOCTYPE svg PUBLIC "-//W3C//DTD SVG 20010904//EN"
 "http://www.w3.org/TR/2001/REC-SVG-20010904/DTD/svg10.dtd">
<svg version="1.0" xmlns="http://www.w3.org/2000/svg"
 width="512.000000pt" height="512.000000pt" viewBox="0 0 512.000000 512.000000"
 preserveAspectRatio="xMidYMid meet">

<g transform="translate(0.000000,512.000000) scale(0.100000,-0.100000)"
fill="#000000" stroke="none">
<path d="M685 5109 c-89 -13 -159 -37 -260 -88 -74 -37 -107 -62 -186 -141
-83 -82 -103 -109 -146 -197 -96 -190 -88 -1 -88 -2133 l0 -1875 23 -79 c43
-149 104 -253 214 -364 114 -115 279 -198 443 -222 94 -13 3654 -13 3748 0
320 46 571 274 664 600 17 62 18 149 18 1940 0 2129 7 1943 -86 2129 -92 185
-259 330 -456 397 -128 44 -106 43 -2013 42 -998 0 -1842 -4 -1875 -9z m1120
-939 c255 -37 486 -150 660 -325 l80 -80 82 81 c448 446 1174 443 1623 -6 261
-260 383 -631 325 -987 -20 -126 -78 -311 -130 -418 -200 -414 -730 -947
-1486 -1492 -166 -120 -400 -276 -414 -276 -32 0 -551 369 -810 577 -304 243
-625 548 -799 756 -85 103 -246 331 -246 350 0 6 207 10 551 10 345 0 557 4
569 10 23 12 31 39 70 215 38 172 92 375 101 375 13 0 55 -184 195 -849 143
-679 153 -717 196 -745 28 -17 71 5 90 45 11 22 49 229 99 545 44 280 83 516
85 524 3 9 17 -7 37 -44 57 -106 33 -101 452 -104 l363 -3 31 -54 c100 -178
357 -176 454 4 72 131 27 292 -99 363 -129 72 -283 30 -355 -97 l-31 -55 -332
0 -332 0 -73 174 c-40 96 -81 182 -91 191 -27 25 -88 16 -111 -15 -14 -18 -31
-103 -64 -310 -56 -356 -95 -573 -104 -582 -6 -7 -177 741 -281 1231 -27 128
-56 244 -64 256 -29 44 -93 45 -121 2 -8 -13 -60 -218 -115 -457 -56 -239
-106 -440 -112 -447 -8 -10 -118 -13 -553 -13 l-542 0 -32 104 c-44 144 -60
225 -67 341 -20 321 103 643 336 875 253 253 620 379 965 330z"/>
</g>
</svg>
